<svg xmlns="http://www.w3.org/2000/svg" width="1500" height="1000" viewBox="0 0 1500 1000"><rect width="1500" height="1000" fill="#0f141b"/><g font-family="JetBrains Mono, monospace"><text x="80" y="105" fill="#fff3c4" font-size="58" font-weight="700">AI where it helps. Contracts everywhere.</text><text x="84" y="157" fill="#56cfe1" font-size="25">A narrow OpenAI boundary keeps retrieval, permissions, and storage enforceable.</text><g text-anchor="middle"><rect x="95" y="260" width="330" height="485" rx="30" fill="#172a3a" stroke="#56cfe1" stroke-width="3"/><text x="260" y="325" fill="#56cfe1" font-size="24">OPENAI</text><text x="260" y="390" fill="#fff3c4" font-size="23">Clarification</text><text x="260" y="445" fill="#fff3c4" font-size="23">Research plans</text><text x="260" y="500" fill="#fff3c4" font-size="23">Explainable rerank</text><text x="260" y="555" fill="#fff3c4" font-size="23">Cited synthesis</text><text x="260" y="610" fill="#fff3c4" font-size="23">Grounded Q&amp;A</text><rect x="585" y="260" width="330" height="485" rx="30" fill="#172a3a" stroke="#9b5de5" stroke-width="3"/><text x="750" y="325" fill="#9b5de5" font-size="24">PYDANTIC DOMAIN</text><text x="750" y="390" fill="#fff3c4" font-size="23">Schema validation</text><text x="750" y="445" fill="#fff3c4" font-size="23">Approval fingerprints</text><text x="750" y="500" fill="#fff3c4" font-size="23">State invalidation</text><text x="750" y="555" fill="#fff3c4" font-size="23">Citation checking</text><text x="750" y="610" fill="#fff3c4" font-size="23">Evidence levels</text><rect x="1075" y="260" width="330" height="485" rx="30" fill="#172a3a" stroke="#ff6b6b" stroke-width="3"/><text x="1240" y="325" fill="#ff6b6b" font-size="24">ADAPTERS</text><text x="1240" y="390" fill="#fff3c4" font-size="23">OpenAlex + arXiv</text><text x="1240" y="445" fill="#fff3c4" font-size="23">Crossref metadata</text><text x="1240" y="500" fill="#fff3c4" font-size="23">SQLite + FTS5</text><text x="1240" y="555" fill="#fff3c4" font-size="23">Isolated PDF worker</text><text x="1240" y="610" fill="#fff3c4" font-size="23">Textual terminal</text></g><g stroke="#637083" stroke-width="5" fill="none"><path d="M425 500h160"/><path d="M915 500h160"/></g><g fill="#637083"><path d="M585 500l-20-11v22z"/><path d="M1075 500l-20-11v22z"/></g><rect x="270" y="830" width="960" height="80" rx="40" fill="#172a3a" stroke="#425466" stroke-width="2"/><text x="750" y="880" fill="#d8d7e0" font-size="23" text-anchor="middle">The model never writes files or contacts scholarly sources directly.</text></g></svg>
